<svg width="202" height="48" viewBox="0 0 202 48" fill="none" xmlns="http://www.w3.org/2000/svg">
<path d="M1.304 37C0.957334 37 0.662667 36.8787 0.42 36.636C0.177333 36.3933 0.0560001 36.0987 0.0560001 35.752V1.9C0.0560001 1.51866 0.177333 1.20666 0.42 0.963999C0.662667 0.721331 0.957334 0.599998 1.304 0.599998H13.992C17.4933 0.599998 20.3707 1.13733 22.624 2.212C24.912 3.28667 26.628 4.88133 27.772 6.996C28.9507 9.11067 29.5573 11.6933 29.592 14.744C29.6613 16.2693 29.696 17.6213 29.696 18.8C29.696 19.9787 29.6613 21.3133 29.592 22.804C29.5227 26.028 28.9333 28.6973 27.824 30.812C26.7147 32.892 25.0333 34.452 22.78 35.492C20.5613 36.4973 17.7187 37 14.252 37H1.304ZM7.284 31.02H13.992C15.9333 31.02 17.5107 30.7427 18.724 30.188C19.9373 29.6333 20.8213 28.7493 21.376 27.536C21.9653 26.288 22.2773 24.6587 22.312 22.648C22.3467 21.608 22.364 20.7067 22.364 19.944C22.3987 19.1467 22.3987 18.3667 22.364 17.604C22.364 16.8067 22.3467 15.9053 22.312 14.9C22.2427 12.0573 21.532 9.96 20.18 8.608C18.828 7.256 16.6787 6.58 13.732 6.58H7.284V31.02ZM36.8825 37C36.5625 37 36.2905 36.888 36.0665 36.664C35.8425 36.44 35.7305 36.168 35.7305 35.848V13.24C35.7305 12.888 35.8425 12.6 36.0665 12.376C36.2905 12.152 36.5625 12.04 36.8825 12.04H40.7705C41.0905 12.04 41.3625 12.152 41.5865 12.376C41.8425 12.6 41.9705 12.888 41.9705 13.24V15.208C42.7065 14.184 43.6505 13.4 44.8025 12.856C45.9865 12.312 47.3465 12.04 48.8825 12.04H50.8505C51.2025 12.04 51.4745 12.152 51.6665 12.376C51.8905 12.6 52.0025 12.872 52.0025 13.192V16.648C52.0025 16.968 51.8905 17.24 51.6665 17.464C51.4745 17.688 51.2025 17.8 50.8505 17.8H47.1065C45.5705 17.8 44.3705 18.232 43.5065 19.096C42.6745 19.928 42.2585 21.112 42.2585 22.648V35.848C42.2585 36.168 42.1465 36.44 41.9225 36.664C41.6985 36.888 41.4105 37 41.0585 37H36.8825Z" fill="url(#paint0_linear_151_251)"/>
<path d="M66.4981 37.48C62.9461 37.48 60.1301 36.456 58.0501 34.408C55.9701 32.36 54.8501 29.448 54.6901 25.672C54.6581 25.352 54.6421 24.952 54.6421 24.472C54.6421 23.96 54.6581 23.56 54.6901 23.272C54.8181 20.84 55.3621 18.76 56.3221 17.032C57.3141 15.272 58.6741 13.928 60.4021 13C62.1301 12.04 64.1621 11.56 66.4981 11.56C69.0901 11.56 71.2661 12.104 73.0261 13.192C74.7861 14.248 76.1141 15.736 77.0101 17.656C77.9061 19.544 78.3541 21.736 78.3541 24.232V25.24C78.3541 25.56 78.2421 25.832 78.0181 26.056C77.7941 26.28 77.5061 26.392 77.1541 26.392H61.2181C61.2181 26.392 61.2181 26.44 61.2181 26.536C61.2181 26.632 61.2181 26.712 61.2181 26.776C61.2501 27.896 61.4581 28.936 61.8421 29.896C62.2581 30.824 62.8501 31.576 63.6181 32.152C64.4181 32.728 65.3621 33.016 66.4501 33.016C67.3461 33.016 68.0981 32.888 68.7061 32.632C69.3141 32.344 69.8101 32.024 70.1941 31.672C70.5781 31.32 70.8501 31.032 71.0101 30.808C71.2981 30.424 71.5221 30.2 71.6821 30.136C71.8741 30.04 72.1461 29.992 72.4981 29.992H76.6261C76.9461 29.992 77.2021 30.088 77.3941 30.28C77.6181 30.472 77.7141 30.712 77.6821 31C77.6501 31.512 77.3781 32.136 76.8661 32.872C76.3861 33.608 75.6821 34.328 74.7541 35.032C73.8261 35.736 72.6581 36.328 71.2501 36.808C69.8741 37.256 68.2901 37.48 66.4981 37.48ZM61.2181 22.36H71.8261V22.216C71.8261 20.968 71.6181 19.88 71.2021 18.952C70.7861 17.992 70.1781 17.256 69.3781 16.744C68.5781 16.2 67.6181 15.928 66.4981 15.928C65.3781 15.928 64.4181 16.2 63.6181 16.744C62.8181 17.256 62.2101 17.992 61.7941 18.952C61.4101 19.88 61.2181 20.968 61.2181 22.216V22.36ZM92.9053 37.48C90.9853 37.48 89.3373 37.256 87.9613 36.808C86.6173 36.36 85.5133 35.8 84.6493 35.128C83.7853 34.456 83.1453 33.784 82.7293 33.112C82.3133 32.44 82.0893 31.88 82.0573 31.432C82.0253 31.08 82.1213 30.808 82.3453 30.616C82.6013 30.392 82.8733 30.28 83.1613 30.28H86.9533C87.0813 30.28 87.1933 30.296 87.2893 30.328C87.3853 30.36 87.5133 30.456 87.6733 30.616C88.0893 30.968 88.5213 31.336 88.9693 31.72C89.4493 32.104 90.0093 32.44 90.6493 32.728C91.2893 32.984 92.0893 33.112 93.0493 33.112C94.2973 33.112 95.3373 32.872 96.1693 32.392C97.0333 31.88 97.4653 31.16 97.4653 30.232C97.4653 29.56 97.2733 29.016 96.8893 28.6C96.5373 28.184 95.8653 27.816 94.8733 27.496C93.8813 27.144 92.4733 26.776 90.6493 26.392C88.8573 25.976 87.3693 25.448 86.1853 24.808C85.0013 24.168 84.1213 23.368 83.5453 22.408C82.9693 21.448 82.6813 20.328 82.6813 19.048C82.6813 17.8 83.0493 16.616 83.7853 15.496C84.5533 14.344 85.6733 13.4 87.1453 12.664C88.6493 11.928 90.5053 11.56 92.7133 11.56C94.4413 11.56 95.9453 11.784 97.2253 12.232C98.5053 12.648 99.5613 13.176 100.393 13.816C101.257 14.456 101.913 15.112 102.361 15.784C102.809 16.424 103.049 16.984 103.081 17.464C103.113 17.816 103.017 18.104 102.793 18.328C102.569 18.52 102.313 18.616 102.025 18.616H98.4733C98.3133 18.616 98.1693 18.584 98.0413 18.52C97.9133 18.456 97.7853 18.376 97.6573 18.28C97.3053 17.96 96.9213 17.624 96.5053 17.272C96.0893 16.888 95.5773 16.568 94.9693 16.312C94.3933 16.056 93.6253 15.928 92.6653 15.928C91.4493 15.928 90.5213 16.2 89.8813 16.744C89.2413 17.256 88.9213 17.912 88.9213 18.712C88.9213 19.256 89.0653 19.736 89.3533 20.152C89.6733 20.536 90.2973 20.904 91.2253 21.256C92.1533 21.608 93.5613 21.976 95.4493 22.36C97.5933 22.744 99.2893 23.32 100.537 24.088C101.817 24.824 102.713 25.688 103.225 26.68C103.769 27.64 104.041 28.712 104.041 29.896C104.041 31.336 103.609 32.632 102.745 33.784C101.913 34.936 100.665 35.848 99.0013 36.52C97.3693 37.16 95.3373 37.48 92.9053 37.48ZM118.452 37.48C116.532 37.48 114.884 37.256 113.508 36.808C112.164 36.36 111.06 35.8 110.196 35.128C109.332 34.456 108.692 33.784 108.276 33.112C107.86 32.44 107.636 31.88 107.604 31.432C107.572 31.08 107.668 30.808 107.892 30.616C108.148 30.392 108.42 30.28 108.708 30.28H112.5C112.628 30.28 112.74 30.296 112.836 30.328C112.932 30.36 113.06 30.456 113.22 30.616C113.636 30.968 114.068 31.336 114.516 31.72C114.996 32.104 115.556 32.44 116.196 32.728C116.836 32.984 117.636 33.112 118.596 33.112C119.844 33.112 120.884 32.872 121.716 32.392C122.58 31.88 123.012 31.16 123.012 30.232C123.012 29.56 122.82 29.016 122.436 28.6C122.084 28.184 121.412 27.816 120.42 27.496C119.428 27.144 118.02 26.776 116.196 26.392C114.404 25.976 112.916 25.448 111.732 24.808C110.548 24.168 109.668 23.368 109.092 22.408C108.516 21.448 108.228 20.328 108.228 19.048C108.228 17.8 108.596 16.616 109.332 15.496C110.1 14.344 111.22 13.4 112.692 12.664C114.196 11.928 116.052 11.56 118.26 11.56C119.988 11.56 121.492 11.784 122.772 12.232C124.052 12.648 125.108 13.176 125.94 13.816C126.804 14.456 127.46 15.112 127.908 15.784C128.356 16.424 128.596 16.984 128.628 17.464C128.66 17.816 128.564 18.104 128.34 18.328C128.116 18.52 127.86 18.616 127.572 18.616H124.02C123.86 18.616 123.716 18.584 123.588 18.52C123.46 18.456 123.332 18.376 123.204 18.28C122.852 17.96 122.468 17.624 122.052 17.272C121.636 16.888 121.124 16.568 120.516 16.312C119.94 16.056 119.172 15.928 118.212 15.928C116.996 15.928 116.068 16.2 115.428 16.744C114.788 17.256 114.468 17.912 114.468 18.712C114.468 19.256 114.612 19.736 114.9 20.152C115.22 20.536 115.844 20.904 116.772 21.256C117.7 21.608 119.108 21.976 120.996 22.36C123.14 22.744 124.836 23.32 126.084 24.088C127.364 24.824 128.26 25.688 128.772 26.68C129.316 27.64 129.588 28.712 129.588 29.896C129.588 31.336 129.156 32.632 128.292 33.784C127.46 34.936 126.212 35.848 124.548 36.52C122.916 37.16 120.884 37.48 118.452 37.48ZM135.695 37C135.375 37 135.103 36.888 134.879 36.664C134.655 36.44 134.543 36.168 134.543 35.848V13.192C134.543 12.872 134.655 12.6 134.879 12.376C135.103 12.152 135.375 12.04 135.695 12.04H139.679C140.031 12.04 140.303 12.152 140.495 12.376C140.719 12.6 140.831 12.872 140.831 13.192V35.848C140.831 36.168 140.719 36.44 140.495 36.664C140.303 36.888 140.031 37 139.679 37H135.695ZM135.503 7.912C135.183 7.912 134.911 7.8 134.687 7.576C134.463 7.352 134.351 7.08 134.351 6.76V3.304C134.351 2.984 134.463 2.712 134.687 2.488C134.911 2.264 135.183 2.152 135.503 2.152H139.871C140.223 2.152 140.511 2.264 140.735 2.488C140.959 2.712 141.071 2.984 141.071 3.304V6.76C141.071 7.08 140.959 7.352 140.735 7.576C140.511 7.8 140.223 7.912 139.871 7.912H135.503ZM149.289 37C148.969 37 148.697 36.888 148.473 36.664C148.249 36.44 148.137 36.168 148.137 35.848V13.192C148.137 12.872 148.249 12.6 148.473 12.376C148.697 12.152 148.969 12.04 149.289 12.04H153.225C153.545 12.04 153.817 12.152 154.041 12.376C154.265 12.6 154.377 12.872 154.377 13.192V15.16C155.209 14.136 156.265 13.288 157.545 12.616C158.857 11.912 160.473 11.56 162.393 11.56C164.345 11.56 166.041 12.008 167.481 12.904C168.921 13.768 170.025 15 170.793 16.6C171.593 18.2 171.993 20.12 171.993 22.36V35.848C171.993 36.168 171.881 36.44 171.657 36.664C171.433 36.888 171.161 37 170.841 37H166.617C166.297 37 166.025 36.888 165.801 36.664C165.577 36.44 165.465 36.168 165.465 35.848V22.648C165.465 20.792 165.001 19.336 164.073 18.28C163.177 17.224 161.865 16.696 160.137 16.696C158.473 16.696 157.145 17.224 156.153 18.28C155.161 19.336 154.665 20.792 154.665 22.648V35.848C154.665 36.168 154.553 36.44 154.329 36.664C154.105 36.888 153.833 37 153.513 37H149.289ZM189.37 47.56C187.034 47.56 185.114 47.256 183.61 46.648C182.106 46.04 180.922 45.304 180.058 44.44C179.194 43.576 178.57 42.712 178.186 41.848C177.834 41.016 177.642 40.36 177.61 39.88C177.578 39.56 177.674 39.272 177.898 39.016C178.154 38.792 178.442 38.68 178.762 38.68H182.938C183.258 38.68 183.514 38.744 183.706 38.872C183.898 39.032 184.058 39.304 184.186 39.688C184.378 40.104 184.634 40.552 184.954 41.032C185.274 41.512 185.754 41.912 186.394 42.232C187.066 42.584 187.978 42.76 189.13 42.76C190.346 42.76 191.37 42.584 192.202 42.232C193.034 41.88 193.658 41.288 194.074 40.456C194.522 39.624 194.746 38.472 194.746 37V33.736C193.978 34.664 192.986 35.416 191.77 35.992C190.586 36.568 189.114 36.856 187.354 36.856C185.658 36.856 184.17 36.584 182.89 36.04C181.642 35.464 180.602 34.68 179.77 33.688C178.938 32.664 178.298 31.464 177.85 30.088C177.434 28.712 177.194 27.192 177.13 25.528C177.098 24.664 177.098 23.8 177.13 22.936C177.194 21.336 177.434 19.848 177.85 18.472C178.298 17.096 178.938 15.896 179.77 14.872C180.602 13.816 181.642 13 182.89 12.424C184.17 11.848 185.658 11.56 187.354 11.56C189.178 11.56 190.714 11.912 191.962 12.616C193.21 13.288 194.234 14.136 195.034 15.16V13.24C195.034 12.888 195.146 12.6 195.37 12.376C195.594 12.152 195.866 12.04 196.186 12.04H200.074C200.394 12.04 200.666 12.152 200.89 12.376C201.114 12.6 201.226 12.888 201.226 13.24L201.274 36.376C201.274 38.68 200.842 40.664 199.978 42.328C199.114 43.992 197.802 45.272 196.042 46.168C194.314 47.096 192.09 47.56 189.37 47.56ZM189.13 31.768C190.442 31.768 191.498 31.48 192.298 30.904C193.098 30.328 193.69 29.576 194.074 28.648C194.458 27.72 194.682 26.776 194.746 25.816C194.778 25.4 194.794 24.872 194.794 24.232C194.794 23.592 194.778 23.08 194.746 22.696C194.682 21.704 194.458 20.76 194.074 19.864C193.69 18.936 193.098 18.184 192.298 17.608C191.498 17 190.442 16.696 189.13 16.696C187.818 16.696 186.762 17 185.962 17.608C185.162 18.184 184.586 18.952 184.234 19.912C183.914 20.872 183.722 21.928 183.658 23.08C183.594 23.848 183.594 24.632 183.658 25.432C183.722 26.552 183.914 27.608 184.234 28.6C184.586 29.56 185.162 30.328 185.962 30.904C186.762 31.48 187.818 31.768 189.13 31.768Z" fill="#292929"/>
<defs>
<linearGradient id="paint0_linear_151_251" x1="-4" y1="2" x2="135.5" y2="28.5" gradientUnits="userSpaceOnUse">
<stop stop-color="#EAD200"/>
<stop offset="1" stop-color="#EAD200" stop-opacity="0"/>
</linearGradient>
</defs>
</svg>
