<svg width="41" height="41" viewBox="0 0 41 41" fill="none" xmlns="http://www.w3.org/2000/svg">
<path d="M12.3 32.8C10.045 32.8 8.2205 34.645 8.2205 36.9C8.2205 39.155 10.045 41 12.3 41C14.555 41 16.4 39.155 16.4 36.9C16.4 34.645 14.555 32.8 12.3 32.8ZM0 0V4.1H4.1L11.48 19.6595L8.7125 24.682C8.3845 25.256 8.2 25.9325 8.2 26.65C8.2 28.905 10.045 30.75 12.3 30.75H36.9V26.65H13.161C12.874 26.65 12.6485 26.4245 12.6485 26.1375L12.71 25.8915L14.555 22.55H29.8275C31.365 22.55 32.718 21.7095 33.415 20.4385L40.754 7.134C40.918 6.847 41 6.4985 41 6.15C41 5.0225 40.0775 4.1 38.95 4.1H8.6305L6.7035 0H0ZM32.8 32.8C30.545 32.8 28.7205 34.645 28.7205 36.9C28.7205 39.155 30.545 41 32.8 41C35.055 41 36.9 39.155 36.9 36.9C36.9 34.645 35.055 32.8 32.8 32.8Z" fill="#292929"/>
</svg>
